#!OML:ASF H:\Male1\Project 1\Capture day 1\Session 1\Male1.ASF
:FULLY-SPECIFIED
:DEGREES
1194
root 4.11431 15.3682 4.94157 178.644 14.2361 185.23
lowerback 5.17824 2.0052 5.75189
upperback 4.45507 3.16487 0.576842
thorax 1.976 1.84978 -2.71667
lowerneck -5.3885 7.53319 10.2833
upperneck 6.92195 9.92076 -7.57183
head 3.83264 4.89244 -3.40526
rclavicle 7.50412e-015 9.74045e-015
rhumerus -35.312 -5.03364 -85.5608
rradius 34.3336
rwrist -21.4148
rhand -19.3371 -1.11522
rfingers 7.12502
rthumb 6.97976 -30.9801
lclavicle 7.50412e-015 9.74045e-015
lhumerus -39.7203 2.04361 81.0572
lradius 28.7164
lwrist -2.83179
lhand -19.224 15.7788
lfingers 7.12502
lthumb 7.08888 45.6401
rfemur 16.3593 10.4726 34.9543
rtibia 3.22081
rfoot -21.9448 -28.4515
rtoes -19.9502
lfemur -27.7645 -8.16265 -16.2217
ltibia 45.79
lfoot -12.8256 9.84195
ltoes -6.05799
1195
root 4.19306 15.4093 4.72723 178.653 14.0458 184.67
lowerback 4.92283 1.99115 5.1117
upperback 4.49195 3.09983 0.40171
thorax 2.12304 1.80367 -2.52651
lowerneck -5.43554 7.52207 10.0386
upperneck 6.85286 9.88509 -7.24965
head 3.78764 4.87889 -3.27158
rclavicle -2.7805e-014 2.20651e-014
rhumerus -35.2453 -4.63062 -85.7807
rradius 34.6647
rwrist -21.6249
rhand -19.6286 -0.979597
rfingers 7.12502
rthumb 6.69835 -30.8536
lclavicle -2.7805e-014 2.20651e-014
lhumerus -40.3814 3.31813 80.2126
lradius 29.0213
lwrist -2.65642
lhand -19.5142 16.0152
lfingers 7.12502
lthumb 6.80883 45.8857
rfemur 18.9509 9.53068 34.655
rtibia 1.59028e-015
rfoot -19.1121 -29.2683
rtoes -24.0129
lfemur -27.8446 -9.99405 -16.0553
ltibia 41.485
lfoot -11.5252 11.3538
ltoes -4.22693
1196
root 4.27039 15.4006 4.51362 178.725 13.9631 184.688
lowerback 4.78187 2.00274 5.13462
upperback 4.49982 3.10503 0.295458
thorax 2.21806 1.8095 -2.64187
lowerneck -5.56019 7.46879 9.8289
upperneck 6.95897 9.77988 -6.77021
head 3.79662 4.83806 -3.09526
rclavicle -4.00551e-014 -1.25234e-014
rhumerus -35.1842 -4.39245 -86.0762
rradius 34.8549
rwrist -21.8663
rhand -19.8695 -0.70026
rfingers 7.12502
rthumb 6.46581 -30.5816
lclavicle -4.00551e-014 -1.25234e-014
lhumerus -40.9715 4.1547 79.3637
lradius 29.1979
lwrist -2.63597
lhand -19.5933 16.0748
lfingers 7.12502
lthumb 6.73243 45.9478
rfemur 19.563 8.79827 34.3947
rtibia 4.77083e-014
rfoot -20.4042 -27.2038
rtoes -18.6105
lfemur -28.1125 -11.9926 -15.113
ltibia 37.9822
lfoot -12.0777 12.608
ltoes -7.64556
1197
root 4.34043 15.3937 4.29904 178.824 14.053 185.267
lowerback 4.78062 2.00791 5.63653
upperback 4.49946 3.13059 0.38244
thorax 2.24576 1.83718 -2.83165
lowerneck -5.58103 7.46209 9.74223
upperneck 7.07856 9.7565 -6.46631
head 3.81482 4.83723 -2.98875
rclavicle -5.55603e-014 8.54774e-015
rhumerus -35.0537 -4.3596 -86.2194
rradius 34.8367
rwrist -21.8347
rhand -19.8697 -0.668997
rfingers 7.12502
rthumb 6.46558 -30.5503
lclavicle -5.55603e-014 8.54774e-015
lhumerus -41.5151 4.84765 78.6452
lradius 29.2229
lwrist -2.77698
lhand -19.6919 16.0372
lfingers 7.12502
lthumb 6.63721 45.9132
rfemur 20.3514 8.14136 34.9212
rtibia 9.54166e-015
rfoot -20.3919 -26.3242
rtoes -18.2438
lfemur -28.3419 -14.2218 -13.4395
ltibia 35.1893
lfoot -13.2546 14.2622
ltoes -7.2744
1198
root 4.40414 15.3925 4.07984 178.836 14.199 185.458
lowerback 4.72714 2.04983 5.76719
upperback 4.52003 3.1877 0.372431
thorax 2.31106 1.87219 -2.91217
lowerneck -5.56733 7.40428 9.74717
upperneck 7.06474 9.66289 -6.29617
head 3.79259 4.79816 -2.9455
rclavicle 5.51627e-014 1.11319e-014
rhumerus -34.9342 -4.49976 -86.264
rradius 34.8357
rwrist -21.6248
rhand -19.7771 -0.863219
rfingers 7.12502
rthumb 6.55498 -30.7418
lclavicle 5.51627e-014 1.11319e-014
lhumerus -41.9897 5.42669 78.0684
lradius 29.2094
lwrist -2.90098
lhand -19.807 16.1857
lfingers 7.12502
lthumb 6.52613 46.0652
rfemur 21.1892 7.53463 35.1167
rtibia -6.36111e-015
rfoot -19.4576 -26.3051
rtoes -22.2659
lfemur -28.611 -16.5667 -12.1439
ltibia 33.1789
lfoot -14.5761 16.0251
ltoes -7.69953
1199
root 4.4657 15.3902 3.86285 178.877 14.3093 185.445
lowerback 4.60445 2.10291 5.67273
upperback 4.53291 3.24496 0.309932
thorax 2.39647 1.90038 -2.91844
lowerneck -5.56853 7.37031 9.83863
upperneck 7.00492 9.60085 -6.25363
head 3.77203 4.7707 -2.95205
rclavicle -5.36719e-014 1.94809e-014
rhumerus -34.8169 -4.74781 -86.2851
rradius 34.8293
rwrist -21.2591
rhand -19.7452 -0.898067
rfingers 7.12502
rthumb 6.58578 -30.7757
lclavicle -5.36719e-014 1.94809e-014
lhumerus -42.3497 5.6878 77.6605
lradius 29.1105
lwrist -2.90229
lhand -19.7496 16.1571
lfingers 7.12502
lthumb 6.58159 46.0348
rfemur 21.9923 6.9406 35.0116
rtibia 8.5875e-014
rfoot -18.9088 -25.933
rtoes -23.9878
lfemur -28.8878 -18.5324 -11.1362
ltibia 31.6695
lfoot -15.2811 16.901
ltoes -10.1965
1200
root 4.52007 15.3807 3.64253 178.706 14.5186 185.309
lowerback 4.64322 2.08142 5.41233
upperback 4.59331 3.21392 0.267809
thorax 2.42095 1.88167 -2.81657
lowerneck -5.65128 7.41368 9.7815
upperneck 7.17977 9.64792 -6.04561
head 3.82938 4.80133 -2.87079
rclavicle 1.46107e-014 0
rhumerus -34.6819 -4.64376 -86.3302
rradius 34.6981
rwrist -20.8733
rhand -19.6169 -0.842672
rfingers 7.12502
rthumb 6.70963 -30.7164
lclavicle 1.46107e-014 0
lhumerus -42.7151 5.94981 77.3608
lradius 28.903
lwrist -2.92231
lhand -19.4991 15.9439
lfingers 7.12502
lthumb 6.82335 45.814
rfemur 23.0388 6.43224 34.6908
rtibia 9.54166e-015
rfoot -18.6961 -25.1169
rtoes -23.2867
lfemur -28.7683 -20.277 -10.5039
ltibia 30.6262
lfoot -15.8594 17.3657
ltoes -7.88301
1201
root 4.57366 15.3717 3.41948 178.463 14.782 185.101
lowerback 4.72857 2.03572 5.01639
upperback 4.64142 3.14874 0.226383
thorax 2.39566 1.84002 -2.64071
lowerneck -5.51406 7.52894 9.8672
upperneck 7.1885 9.81454 -6.07107
head 3.82824 4.88793 -2.8843
rclavicle 1.2424e-014 8.74653e-015
rhumerus -34.637 -4.28061 -86.4276
rradius 34.5958
rwrist -20.7339
rhand -19.5196 -0.885053
rfingers 7.12502
rthumb 6.80356 -30.7557
lclavicle 1.2424e-014 8.74653e-015
lhumerus -43.0542 6.2317 77.1214
lradius 28.5716
lwrist -3.29268
lhand -18.7125 16.1414
lfingers 7.12502
lthumb 7.58269 45.9854
rfemur 24.1185 5.96768 34.3085
rtibia 1.27222e-014
rfoot -17.9278 -24.5331
rtoes -24.0399
lfemur -28.4384 -21.3543 -10.2451
ltibia 30.1171
lfoot -16.2717 17.9882
ltoes -7.03245
1202
root 4.62336 15.3625 3.19894 178.328 15.0864 185.185
lowerback 4.84063 2.02727 4.86791
upperback 4.63774 3.14009 0.271107
thorax 2.31684 1.82936 -2.51742
lowerneck -5.36727 7.60423 10.0001
upperneck 7.19106 9.92159 -6.06888
head 3.82003 4.94771 -2.9015
rclavicle 3.24019e-014 9.14409e-015
rhumerus -34.7171 -4.02293 -86.4976
rradius 34.625
rwrist -20.7704
rhand -19.5416 -0.952621
rfingers 7.12502
rthumb 6.78232 -30.824
lclavicle 3.24019e-014 9.14409e-015
lhumerus -43.2574 6.35821 77.0068
lradius 28.0626
lwrist -4.06809
lhand -17.3664 14.0795
lfingers 7.12502
lthumb 8.88182 43.8725
rfemur 25.1061 5.54116 34.226
rtibia -1.59028e-014
rfoot -16.3904 -24.2633
rtoes -26.5726
lfemur -27.8267 -21.6177 -9.97351
ltibia 30.3432
lfoot -16.4627 17.732
ltoes -6.37794
1203
root 4.66121 15.3361 2.97309 178.386 15.7536 185.952
lowerback 4.90252 2.09325 5.42373
upperback 4.67853 3.25588 0.504887
thorax 2.35435 1.90541 -2.58894
lowerneck -5.29503 7.69267 9.95397
upperneck 7.11965 10.0306 -5.87455
head 3.78297 5.00864 -2.83162
rclavicle -9.45221e-014 7.95139e-015
rhumerus -34.754 -3.70923 -86.4997
rradius 34.6427
rwrist -20.6255
rhand -19.2719 -0.870067
rfingers 7.12502
rthumb 7.04265 -30.7329
lclavicle -9.45221e-014 7.95139e-015
lhumerus -43.2229 6.66898 76.8922
lradius 27.3974
lwrist -4.92526
lhand -16.7772 13.2941
lfingers 7.12502
lthumb 9.45032 43.0622
rfemur 26.0606 5.42126 34.9106
rtibia 1.27222e-014
rfoot -13.2724 -24.6619
rtoes -32.2611
lfemur -26.9836 -21.1247 -9.33852
ltibia 30.6975
lfoot -16.0724 16.6293
ltoes -7.51543
1204
root 4.69048 15.2918 2.75891 178.853 16.6979 187.859
lowerback 5.19791 2.19053 7.10669
upperback 4.59751 3.48321 1.00242
thorax 2.20547 2.06131 -3.03027
lowerneck -5.22694 7.75788 9.8644
upperneck 7.06497 10.112 -5.66688
head 3.74633 5.05558 -2.75298
rclavicle 4.12478e-015 5.96354e-015
rhumerus -34.8565 -3.75977 -86.3174
rradius 34.5225
rwrist -19.7942
rhand -18.5313 -0.663341
rfingers 7.12502
rthumb 7.75754 -30.501
lclavicle 4.12478e-015 5.96354e-015
lhumerus -43.0879 6.9431 76.7605
lradius 26.6583
lwrist -5.61917
lhand -16.413 13.0393
lfingers 7.12502
lthumb 9.80175 42.7912
rfemur 26.7786 5.49237 36.8994
rtibia -4.45278e-014
rfoot -7.0194 -25.5716
rtoes -42.301
lfemur -26.1611 -19.5477 -7.77698
ltibia 31.1617
lfoot -15.6612 16.2875
ltoes -6.92281
1205
root 4.73912 15.3172 2.50231 178.863 17.021 187.763
lowerback 4.77349 2.25261 6.98775
upperback 4.59972 3.51368 0.9283
thorax 2.44536 2.07629 -3.01843
lowerneck -5.05526 7.81582 10.0224
upperneck 6.93452 10.1942 -5.72936
head 3.69641 5.09953 -2.79896
rclavicle -5.82439e-014 2.18663e-014
rhumerus -35.0607 -4.38819 -86.0264
rradius 34.3913
rwrist -18.8341
rhand -17.9243 -0.533503
rfingers 7.12502
rthumb 8.34337 -30.3487
lclavicle -5.82439e-014 2.18663e-014
lhumerus -42.8671 6.86661 76.7281
lradius 25.9263
lwrist -6.224
lhand -16.0887 13.0191
lfingers 7.12502
lthumb 10.1146 42.756
rfemur 27.7312 5.3703 35.9246
rtibia 6.67916e-014
rfoot -10.8851 -22.7599
rtoes -28.0498
lfemur -25.0119 -18.3769 -8.51032
ltibia 31.3529
lfoot -15.2248 16.0474
ltoes -7.0245
1206
root 4.78223 15.3369 2.2389 178.546 17.3037 186.939
lowerback 4.45042 2.33618 6.25015
upperback 4.61056 3.56137 0.592216
thorax 2.61435 2.08058 -2.93966
lowerneck -4.83362 7.88819 10.3003
upperneck 6.76905 10.2864 -5.73289
head 3.63186 5.15428 -2.8472
rclavicle -1.05356e-014 -1.63003e-014
rhumerus -35.3517 -4.93287 -85.9341
rradius 34.3064
rwrist -18.4708
rhand -17.7914 -0.624115
rfingers 7.12502
rthumb 8.47168 -30.4342
lclavicle -1.05356e-014 -1.63003e-014
lhumerus -42.5605 6.71329 76.6203
lradius 25.1496
lwrist -6.89724
lhand -15.7981 13.1469
lfingers 7.12502
lthumb 10.3949 42.87
rfemur 28.8484 5.05378 34.7133
rtibia -4.45278e-014
rfoot -8.27046 -22.2286
rtoes -31.0387
lfemur -23.7871 -17.8507 -9.95399
ltibia 31.4399
lfoot -14.6557 15.974
ltoes -10.1658
